<?xml version="1.0" encoding="utf-8"?>
<!-- Generator: Adobe Illustrator 18.1.1, SVG Export Plug-In . SVG Version: 6.00 Build 0)  -->
<svg version="1.1" id="Layer_1" xmlns="http://www.w3.org/2000/svg" xmlns:xlink="http://www.w3.org/1999/xlink" x="0px" y="0px"
	 viewBox="0 0 920 107.1" enable-background="new 0 0 920 107.1" xml:space="preserve">
<g>
	<path fill="#FF0000" d="M56.3,1.6L0,105.4h39.3l7.3-15.8h27.3l2.1,15.8h39.2L94,1.6H56.3z M70.3,60.9h-10L68,44.4L70.3,60.9z"/>
	<path fill="#FF0000" d="M215,17.2c-3.1-5-7.5-9-13.1-11.6c-5.5-2.6-12.7-3.9-22-3.9h-47.1l-17.5,103.8h48.4c5.5,0,11.9-0.9,19-2.7
		c5.5-1.4,10.9-4.2,16-8.4c5.1-4.1,9.5-9.3,13-15.3c3.5-6,6.2-14.5,8-25.2c1.2-6.9,1.4-13.5,0.8-19.6
		C219.9,27.8,218.1,22.1,215,17.2z M165.4,31.3h4c6.2,0,10.3,1.3,12.1,3.9c1.1,1.6,2.7,6,0.7,17.9c-1.2,7.1-2.7,12.3-4.5,15.2
		c-1.6,2.7-3.5,4.6-5.6,5.6c-1.6,0.8-4.9,1.7-11.7,1.7h-2.5L165.4,31.3z"/>
	<path fill="#FF0000" d="M297.8,1.6l-10.4,61.8c-0.7,4.4-2.4,7.7-5.1,9.9c-2.6,2.3-5.9,3.4-10,3.4c-3.9,0-6.5-1-8.1-2.9
		c-1.6-2-2.1-5-1.4-9.1l10.7-63.1h-37.5L225.7,62c-0.9,5.1-0.9,10.9,0,17.4c0.6,4.4,2.3,8.7,5.1,12.8c2.8,4,6.1,7.2,10,9.5
		c3.8,2.2,8.7,3.7,14.6,4.4c5.5,0.7,10.7,1,15.5,1c8.4,0,16-1.2,22.4-3.4c4.8-1.7,9.7-4.6,14.4-8.7c4.8-4.1,8.6-8.9,11.4-14.4
		c2.8-5.4,4.7-11.2,5.7-17.2l10.4-61.7H297.8z"/>
	<polygon fill="#FF0000" points="384.1,1.6 346.6,1.6 329.1,105.4 412.5,105.4 417.8,73.8 371.9,73.8 	"/>
	<polygon fill="#FF0000" points="519.3,1.6 421.9,1.6 416.5,33.3 446.5,33.3 434.3,105.4 471.8,105.4 484,33.3 514,33.3 	"/>
	<path fill="#FF0000" d="M596.3,7.7c-6.4-5.2-16-7.7-29.2-7.7c-10.4,0-19,1.4-25.6,4.1c-6.7,2.8-12.1,6.6-16.1,11.5
		c-4,4.9-6.5,10.2-7.5,15.8c-1.5,8.8,0.6,16.2,6.3,21.9c4.1,4.2,10.4,7.7,19.2,10.5L508.3,66l-0.3,3.4c-0.9,10.7,1.6,19.7,7.4,26.8
		c6,7.3,17.5,10.9,35.1,10.9c9.7,0,18.1-1.5,25.1-4.3c7.1-2.9,13.1-7.3,17.7-13c4.7-5.7,7.6-12,8.8-18.9c1-6,0.4-11.5-1.7-16.4
		c-2.2-5-6.2-9.2-12.1-12.5c-2.5-1.4-5.7-2.8-9.6-4.1l26.5-1.5l0.2-3.6C606,21.5,602.9,13.1,596.3,7.7z M553.8,30.6
		c-0.4-0.4-0.3-0.5-0.3-0.6c0.1-0.7,0.4-1.7,1.9-2.8c1.3-0.9,3.2-1.4,5.7-1.4c3.1,0,5.2,0.6,6.5,1.8c1.5,1.5,1.8,4.4,1.8,6.5l0,0.9
		c-2.6-0.7-5.4-1.4-8.3-2c-5.9-1.3-7.2-2.3-7.2-2.3L553.8,30.6z M544.2,68.1l0.1-4.1c2.3,0.7,4.8,1.4,7.4,2c9.7,2.2,11.8,4,12.1,4.4
		c1,1,1.3,2,1.1,3.3c-0.3,1.6-1.3,3-3,4.4c-1.9,1.4-4.5,2.2-7.8,2.2c-5.6,0-7.6-2.2-8.6-3.9C544.9,75.2,544.1,72.8,544.2,68.1z"/>
	<polygon fill="#FF0000" points="716.7,1.6 702.5,41.3 698.2,1.6 664.2,1.6 646.7,41.1 646,1.6 609.9,1.6 615.3,105.4 650.5,105.4 
		672.4,56.3 677.7,105.4 712.8,105.4 753.1,1.6 	"/>
	<polygon fill="#FF0000" points="754.7,1.6 737.1,105.4 774.7,105.4 792.2,1.6 	"/>
	<polygon fill="#FF0000" points="874,1.6 854.6,47.5 850.6,1.6 804.9,1.6 787.3,105.4 819.5,105.4 827.2,60.2 831,105.4 
		859.1,105.4 877.7,61.4 870.3,105.4 902.5,105.4 920,1.6 	"/>
</g>
<g>
	<g>
		<path fill="#FFF662" d="M77.4,85.6H44.1l-7.3,15.8h-30l52-95.8h32.1l19.6,95.8H79.5L77.4,85.6z M74.8,64.9l-4.7-34.4L53.9,64.9
			H74.8z"/>
		<path fill="#FFF662" d="M136.3,5.6h43.7c8.6,0,15.4,1.2,20.3,3.5c4.9,2.4,8.7,5.7,11.4,10.1c2.7,4.4,4.4,9.5,4.9,15.4
			c0.6,5.8,0.3,12-0.8,18.6c-1.7,10.2-4.2,18.2-7.5,23.8c-3.3,5.6-7.3,10.4-12,14.2c-4.8,3.8-9.6,6.3-14.5,7.6
			c-6.7,1.7-12.7,2.6-18,2.6h-43.7L136.3,5.6z M162,27.3l-8.8,52.3h7.2c6.1,0,10.6-0.7,13.5-2.1c2.8-1.4,5.3-3.8,7.3-7.2
			c2-3.4,3.7-9,5-16.6c1.7-10.1,1.2-17.1-1.4-20.8c-2.7-3.7-7.8-5.6-15.4-5.6H162z"/>
		<path fill="#FFF662" d="M301.2,5.6h29.3l-9.6,57.1c-1,5.7-2.7,11-5.3,16c-2.6,5-6.1,9.4-10.5,13.2c-4.4,3.8-8.8,6.4-13.1,7.9
			c-6.1,2.1-13.1,3.2-21.1,3.2c-4.6,0-9.6-0.3-15-1c-5.4-0.7-9.7-1.9-13.1-3.9c-3.4-1.9-6.2-4.7-8.7-8.3s-3.9-7.2-4.4-11
			c-0.8-6.1-0.8-11.5,0-16.2l9.6-57.1h29.3l-9.9,58.4c-0.9,5.2-0.1,9.3,2.2,12.2c2.4,2.9,6.1,4.4,11.2,4.4c5.1,0,9.3-1.4,12.6-4.3
			c3.4-2.9,5.5-7,6.4-12.3L301.2,5.6z"/>
		<path fill="#FFF662" d="M350,5.6h29.4l-12.2,72.2h45.9l-4,23.6h-75.3L350,5.6z"/>
		<path fill="#FFF662" d="M425.2,5.6h89.4l-4,23.7h-30l-12.2,72.1H439l12.2-72.1h-30L425.2,5.6z"/>
		<path fill="#FFF662" d="M512,69.7l28.3-1.8c-0.2,4.6,0.5,8.1,1.9,10.5c2.4,3.9,6.4,5.8,12,5.8c4.2,0,7.6-1,10.2-3
			c2.6-2,4.1-4.3,4.6-6.9c0.4-2.5-0.3-4.7-2.1-6.7c-1.8-2-6.5-3.8-14.1-5.6c-12.4-2.9-20.9-6.8-25.6-11.6c-4.7-4.8-6.4-11-5.2-18.5
			c0.8-4.9,3-9.6,6.6-14c3.6-4.4,8.4-7.8,14.5-10.3c6.1-2.5,14.1-3.8,24-3.8c12.2,0,21,2.3,26.7,6.8c5.6,4.6,8.2,11.8,7.7,21.7
			l-28,1.6c0-4.3-1-7.4-3.1-9.4c-2-2-5.1-2.9-9.3-2.9c-3.4,0-6.1,0.7-8.1,2.2c-2,1.5-3.1,3.2-3.5,5.3c-0.3,1.5,0.2,2.9,1.4,4.1
			c1.2,1.3,4.3,2.4,9.3,3.5c12.4,2.8,21.1,5.6,26.2,8.5c5.1,2.9,8.5,6.4,10.3,10.6c1.8,4.2,2.3,9,1.4,14.2c-1,6.1-3.7,11.8-7.9,17
			c-4.3,5.2-9.6,9.1-16.1,11.8c-6.5,2.7-14.4,4-23.6,4c-16.2,0-26.9-3.1-32-9.4S511.1,79.4,512,69.7z"/>
		<path fill="#FFF662" d="M614.1,5.6h27.9l1,53.6l23.8-53.6h27.8l5.7,53.6l19.1-53.6h27.8l-37.2,95.8h-28.8l-6.5-60.3l-26.8,60.3
			h-28.8L614.1,5.6z"/>
		<path fill="#FFF662" d="M758,5.6h29.5l-16.2,95.8h-29.5L758,5.6z"/>
		<path fill="#FFF662" d="M808.3,5.6h38.7l5.1,58.3l24.7-58.3h38.6l-16.2,95.8H875l12.4-73.1l-30.9,73.1h-21.8l-6.2-73.1l-12.4,73.1
			h-24.1L808.3,5.6z"/>
	</g>
</g>
</svg>
